<svg width="100%" height="100%" viewBox="0 0 2380 776" version="1.1" xmlns="http://www.w3.org/2000/svg" xml:space="preserve" fill-rule="evenodd" clip-rule="evenodd" stroke-linejoin="round" stroke-miterlimit="2">
    <g transform="matrix(4.16667,0,0,4.16667,0,0)">
        <g transform="matrix(0.99873,0,0,0.93205,-175.03,-186.458)">
            <rect x="175.253" y="200.052" width="571.691" height="199.599" style="fill:none;"/>
          <g transform="matrix(1.00127,0,0,1.0729,0.0302799,-14.529)">
                <g transform="matrix(0.993,-0.118113,-0.118113,-0.993,355.783,334.819)">
                    <path d="M-7.106,-0.387C-7.449,-3.265 -7.28,-3.285 -21.163,-1.634L-7.106,116.543C-6.361,122.807 -3.652,122.485 7.353,121.176L-7.106,-0.387Z" style="fill:rgb(248,150,45);fill-rule:nonzero;"/>
                </g>
            <g transform="matrix(1,0,0,1,387.815,263.069)">
                    <path d="M0,67.006C7.332,67.006 12.617,59.504 12.617,32.906C12.617,5.796 8.696,0.17 0.682,0.17C-6.82,0.17 -12.105,6.989 -12.105,33.588C-12.105,61.721 -7.843,67.006 0,67.006M1.023,-11.765C18.926,-11.765 27.622,-1.877 27.622,32.735C27.622,64.448 17.903,78.771 0,78.771C-17.902,78.771 -27.109,71.61 -27.109,33.247C-27.109,2.045 -16.709,-11.765 1.023,-11.765" style="fill:rgb(248,150,45);fill-rule:nonzero;"/>
                </g>
            <g transform="matrix(1,0,0,1,427.372,333.315)">
                    <path d="M0,-76.555C7.502,-80.136 16.368,-82.182 25.746,-82.182C32.736,-82.182 37.511,-80.306 40.75,-76.896C46.547,-80.306 54.22,-82.182 60.188,-82.182C79.966,-82.182 81.159,-74.339 81.159,-50.809L81.159,2.728C81.159,5.627 81.671,5.627 67.349,5.627L67.349,-51.492C67.349,-65.472 66.837,-69.906 58.482,-69.906C54.901,-69.906 51.321,-68.883 47.57,-65.984L47.57,3.922C47.399,4.262 47.399,4.774 46.889,4.945C46.889,5.115 46.718,5.115 46.547,5.115C45.694,5.456 44.16,5.627 41.262,5.627L33.76,5.627L33.76,-51.492C33.76,-64.62 33.76,-70.076 25.405,-70.076C21.654,-70.076 17.732,-69.223 13.811,-66.837L13.811,2.728C13.811,5.627 14.152,5.627 0,5.627L0,-76.555Z" style="fill:rgb(248,150,45);fill-rule:nonzero;"/>
                </g>
            <g transform="matrix(1,0,0,1,555.591,294.1)">
                    <path d="M0,4.603C-2.217,3.409 -5.627,3.068 -8.014,3.068C-14.834,3.068 -20.631,5.456 -20.631,20.459C-20.631,35.123 -16.368,35.805 -9.719,35.805C-6.309,35.805 -2.047,34.782 -0.512,33.077C-0.512,33.077 0,16.879 0,4.603M-34.953,-34.442C-34.953,-36.317 -34.612,-38.022 -33.419,-38.875C-30.861,-40.751 -19.437,-42.967 -3.581,-42.967C7.502,-42.967 13.98,-37.511 13.98,-22.166L13.98,-12.277C13.98,17.561 12.958,41.772 12.958,41.772C8.354,44.67 0.341,47.399 -10.742,47.399C-23.188,47.57 -35.124,46.546 -35.124,20.63C-35.124,-3.07 -23.871,-7.332 -12.959,-7.332C-8.696,-7.332 -3.41,-6.821 0,-5.116L0,-19.438C0,-27.452 -3.752,-29.498 -9.037,-29.498C-16.71,-29.498 -27.792,-27.963 -33.078,-25.576C-34.783,-28.475 -34.953,-33.249 -34.953,-34.442" style="fill:rgb(248,150,45);fill-rule:nonzero;"/>
                </g>
            <g transform="matrix(1,0,0,1,583.553,333.315)">
                    <path d="M0,-76.555C6.649,-79.624 18.926,-82.182 28.133,-82.182C48.764,-82.182 50.979,-74.339 50.979,-50.809L50.979,2.728C50.979,5.627 51.15,5.627 36.657,5.627L36.657,-51.492C36.657,-64.961 35.635,-70.076 26.598,-70.076C22.847,-70.076 17.562,-69.223 13.811,-66.837L13.811,2.728C13.811,5.627 14.151,5.627 0,5.627L0,-76.555Z" style="fill:rgb(248,150,45);fill-rule:nonzero;"/>
                </g>
            <g transform="matrix(1,0,0,1,336.459,362.814)">
                    <path d="M0,0.247L1.885,0.247C3.741,0.247 5.084,-0.054 5.914,-0.653C6.743,-1.253 7.159,-2.214 7.159,-3.536C7.159,-4.727 6.768,-5.613 5.988,-6.196C5.208,-6.779 3.992,-7.07 2.341,-7.07L0,-7.07L0,0.247ZM9.327,-3.636C9.327,-1.811 8.705,-0.408 7.46,0.573C6.215,1.556 4.436,2.046 2.119,2.046L0,2.046L0,9.13L-2.094,9.13L-2.094,-8.883L2.575,-8.883C7.076,-8.883 9.327,-7.134 9.327,-3.636" style="fill:rgb(182,84,21);fill-rule:nonzero;"/>
                </g>
            <g transform="matrix(1,0,0,1,366.784,358.713)">
                    <path d="M0,8.437C0,10.023 -0.576,11.257 -1.725,12.147C-2.875,13.034 -4.436,13.477 -6.406,13.477C-8.542,13.477 -10.185,13.202 -11.335,12.651L-11.335,10.631C-10.595,10.943 -9.791,11.19 -8.92,11.371C-8.049,11.551 -7.187,11.641 -6.333,11.641C-4.937,11.641 -3.886,11.376 -3.178,10.847C-2.472,10.317 -2.119,9.581 -2.119,8.635C-2.119,8.011 -2.245,7.5 -2.495,7.1C-2.746,6.703 -3.165,6.334 -3.752,5.999C-4.339,5.661 -5.232,5.28 -6.431,4.853C-8.107,4.252 -9.304,3.542 -10.022,2.721C-10.741,1.901 -11.101,0.829 -11.101,-0.495C-11.101,-1.882 -10.579,-2.987 -9.536,-3.808C-8.493,-4.628 -7.113,-5.04 -5.396,-5.04C-3.605,-5.04 -1.959,-4.712 -0.456,-4.055L-1.109,-2.231C-2.596,-2.856 -4.041,-3.167 -5.445,-3.167C-6.554,-3.167 -7.421,-2.929 -8.045,-2.453C-8.669,-1.976 -8.981,-1.314 -8.981,-0.469C-8.981,0.155 -8.866,0.666 -8.637,1.065C-8.406,1.463 -8.019,1.828 -7.472,2.16C-6.926,2.495 -6.09,2.861 -4.965,3.264C-3.076,3.938 -1.776,4.661 -1.066,5.431C-0.355,6.204 0,7.206 0,8.437" style="fill:rgb(182,84,21);fill-rule:nonzero;"/>
                </g>
            <g transform="matrix(1,0,0,1,382.116,362.938)">
                    <path d="M0,-0.001L4.805,-9.007L7.072,-9.007L1.06,2.02L1.06,9.006L-1.06,9.006L-1.06,2.119L-7.06,-9.007L-4.768,-9.007L0,-0.001Z" style="fill:rgb(182,84,21);fill-rule:nonzero;"/>
                </g>
            <g transform="matrix(1,0,0,1,406.441,370.319)">
                    <path d="M0,-14.773C-1.979,-14.773 -3.542,-14.115 -4.688,-12.795C-5.833,-11.478 -6.407,-9.672 -6.407,-7.381C-6.407,-5.024 -5.854,-3.203 -4.75,-1.918C-3.645,-0.632 -2.07,0.011 -0.024,0.011C1.232,0.011 2.665,-0.215 4.275,-0.667L4.275,1.169C3.027,1.636 1.486,1.872 -0.345,1.872C-2.998,1.872 -5.045,1.066 -6.487,-0.544C-7.928,-2.152 -8.648,-4.44 -8.648,-7.407C-8.648,-9.262 -8.302,-10.888 -7.607,-12.285C-6.914,-13.681 -5.912,-14.757 -4.602,-15.512C-3.292,-16.268 -1.75,-16.645 0.025,-16.645C1.914,-16.645 3.564,-16.3 4.977,-15.611L4.09,-13.812C2.727,-14.453 1.363,-14.773 0,-14.773" style="fill:rgb(182,84,21);fill-rule:nonzero;"/>
                </g>
            <g transform="matrix(1,0,0,1,435.386,353.931)">
                    <path d="M0,18.013L-2.094,18.013L-2.094,9.535L-11.58,9.535L-11.58,18.013L-13.675,18.013L-13.675,0L-11.58,0L-11.58,7.663L-2.094,7.663L-2.094,0L0,0L0,18.013Z" style="fill:rgb(182,84,21);fill-rule:nonzero;"/>
                </g>
            <g transform="matrix(1,0,0,1,448.672,362.926)">
                    <path d="M0,-0.014C0,2.426 0.521,4.277 1.56,5.537C2.597,6.798 4.106,7.428 6.087,7.428C8.083,7.428 9.59,6.8 10.607,5.544C11.627,4.288 12.136,2.435 12.136,-0.014C12.136,-2.436 11.628,-4.275 10.614,-5.526C9.601,-6.779 8.099,-7.405 6.11,-7.405C4.116,-7.405 2.597,-6.775 1.56,-5.513C0.521,-4.252 0,-2.419 0,-0.014M14.354,-0.014C14.354,2.87 13.625,5.136 12.167,6.787C10.709,8.438 8.683,9.264 6.087,9.264C3.434,9.264 1.388,8.453 -0.055,6.831C-1.496,5.21 -2.217,2.92 -2.217,-0.038C-2.217,-2.971 -1.494,-5.243 -0.049,-6.857C1.396,-8.47 3.45,-9.278 6.11,-9.278C8.698,-9.278 10.719,-8.455 12.174,-6.815C13.627,-5.17 14.354,-2.904 14.354,-0.014" style="fill:rgb(182,84,21);fill-rule:nonzero;"/>
                </g>
            <g transform="matrix(1,0,0,1,474.106,353.931)">
                    <path d="M0,18.013L0,0L2.095,0L2.095,16.115L10.041,16.115L10.041,18.013L0,18.013Z" style="fill:rgb(182,84,21);fill-rule:nonzero;"/>
                </g>
            <g transform="matrix(1,0,0,1,495.55,362.926)">
                    <path d="M0,-0.014C0,2.426 0.519,4.277 1.558,5.537C2.598,6.798 4.105,7.428 6.085,7.428C8.081,7.428 9.589,6.8 10.606,5.544C11.625,4.288 12.135,2.435 12.135,-0.014C12.135,-2.436 11.626,-4.275 10.613,-5.526C9.6,-6.779 8.098,-7.405 6.11,-7.405C4.115,-7.405 2.598,-6.775 1.558,-5.513C0.519,-4.252 0,-2.419 0,-0.014M14.353,-0.014C14.353,2.87 13.623,5.136 12.166,6.787C10.707,8.438 8.682,9.264 6.085,9.264C3.433,9.264 1.385,8.453 -0.057,6.831C-1.497,5.21 -2.219,2.92 -2.219,-0.038C-2.219,-2.971 -1.496,-5.243 -0.049,-6.857C1.395,-8.47 3.449,-9.278 6.11,-9.278C8.696,-9.278 10.719,-8.455 12.173,-6.815C13.626,-5.17 14.353,-2.904 14.353,-0.014" style="fill:rgb(182,84,21);fill-rule:nonzero;"/>
                </g>
            <g transform="matrix(1,0,0,1,528.904,363.358)">
                    <path d="M0,-0.851L6.123,-0.851L6.123,7.909C5.17,8.212 4.203,8.442 3.215,8.597C2.229,8.754 1.089,8.833 -0.209,8.833C-2.936,8.833 -5.059,8.021 -6.578,6.399C-8.099,4.778 -8.858,2.504 -8.858,-0.42C-8.858,-2.292 -8.482,-3.933 -7.73,-5.341C-6.979,-6.75 -5.897,-7.826 -4.483,-8.57C-3.071,-9.314 -1.417,-9.684 0.48,-9.684C2.403,-9.684 4.192,-9.331 5.852,-8.625L5.039,-6.778C3.412,-7.468 1.849,-7.812 0.346,-7.812C-1.848,-7.812 -3.561,-7.158 -4.793,-5.853C-6.023,-4.547 -6.639,-2.737 -6.639,-0.42C-6.639,2.011 -6.047,3.856 -4.859,5.112C-3.674,6.369 -1.93,6.997 0.369,6.997C1.619,6.997 2.838,6.853 4.028,6.565L4.028,1.022L0,1.022L0,-0.851Z" style="fill:rgb(182,84,21);fill-rule:nonzero;"/>
                </g>
            <g transform="matrix(1,0,0,1,-8.50389,122.091)">
                    <rect x="554.921" y="231.84" width="2.094" height="18.013" style="fill:rgb(182,84,21);"/>
                </g>
            <g transform="matrix(1,0,0,1,570.558,353.931)">
                    <path d="M0,18.013L-10.04,18.013L-10.04,0L0,0L0,1.861L-7.947,1.861L-7.947,7.663L-0.481,7.663L-0.481,9.51L-7.947,9.51L-7.947,16.139L0,16.139L0,18.013Z" style="fill:rgb(182,84,21);fill-rule:nonzero;"/>
                </g>
            <g transform="matrix(1,0,0,1,583.706,362.814)">
                    <path d="M0,0.247L1.886,0.247C3.743,0.247 5.086,-0.054 5.915,-0.653C6.744,-1.253 7.158,-2.214 7.158,-3.536C7.158,-4.727 6.769,-5.613 5.989,-6.196C5.207,-6.779 3.993,-7.07 2.341,-7.07L0,-7.07L0,0.247ZM9.327,-3.636C9.327,-1.811 8.705,-0.408 7.461,0.573C6.216,1.556 4.437,2.046 2.122,2.046L0,2.046L0,9.13L-2.093,9.13L-2.093,-8.883L2.577,-8.883C7.077,-8.883 9.327,-7.134 9.327,-3.636" style="fill:rgb(182,84,21);fill-rule:nonzero;"/>
                </g>
            <g transform="matrix(1,0,0,1,605.963,363.221)">
                    <path d="M0,-0.567L2.87,-0.567C4.35,-0.567 5.435,-0.86 6.123,-1.449C6.814,-2.036 7.156,-2.917 7.156,-4.089C7.156,-5.281 6.808,-6.139 6.104,-6.665C5.402,-7.191 4.275,-7.454 2.723,-7.454L0,-7.454L0,-0.567ZM0,1.233L0,8.723L-2.094,8.723L-2.094,-9.29L2.846,-9.29C5.056,-9.29 6.687,-8.867 7.744,-8.02C8.798,-7.173 9.326,-5.901 9.326,-4.201C9.326,-1.82 8.12,-0.21 5.704,0.629L10.596,8.723L8.12,8.723L3.758,1.233L0,1.233Z" style="fill:rgb(182,84,21);fill-rule:nonzero;"/>
                </g>
            <g transform="matrix(1,0,0,1,634.957,361.471)">
                    <path d="M0,2.86L-2.093,-2.722C-2.364,-3.428 -2.644,-4.294 -2.932,-5.321C-3.112,-4.534 -3.37,-3.666 -3.707,-2.722L-5.827,2.86L0,2.86ZM2.896,10.473L0.653,4.745L-6.565,4.745L-8.784,10.473L-10.902,10.473L-3.781,-7.613L-2.02,-7.613L5.063,10.473L2.896,10.473Z" style="fill:rgb(182,84,21);fill-rule:nonzero;"/>
                </g>
            <g transform="matrix(1,0,0,1,662.573,353.931)">
                    <path d="M0,18.013L-2.464,18.013L-9.031,9.278L-10.915,10.952L-10.915,18.013L-13.01,18.013L-13.01,0L-10.915,0L-10.915,8.933L-2.747,0L-0.271,0L-7.515,7.824L0,18.013Z" style="fill:rgb(182,84,21);fill-rule:nonzero;"/>
                </g>
            <g transform="matrix(1,0,0,1,677.658,353.931)">
                    <path d="M0,18.013L-2.096,18.013L-2.096,1.861L-7.799,1.861L-7.799,0L5.703,0L5.703,1.861L0,1.861L0,18.013Z" style="fill:rgb(182,84,21);fill-rule:nonzero;"/>
                </g>
            <g transform="matrix(1,0,0,1,-8.50389,122.091)">
                    <rect x="701.643" y="231.84" width="2.093" height="18.013" style="fill:rgb(182,84,21);"/>
                </g>
            <g transform="matrix(1,0,0,1,704.611,353.931)">
                    <path d="M0,22.755C-0.773,22.755 -1.379,22.645 -1.823,22.422L-1.823,20.637C-1.238,20.8 -0.632,20.882 0,20.882C0.813,20.882 1.432,20.637 1.854,20.145C2.277,19.651 2.488,18.942 2.488,18.013L2.488,0L4.584,0L4.584,17.839C4.584,19.4 4.188,20.609 3.4,21.468C2.612,22.326 1.479,22.755 0,22.755" style="fill:rgb(182,84,21);fill-rule:nonzero;"/>
                </g>
            <g transform="matrix(1,0,0,1,734.05,353.931)">
                    <path d="M0,18.013L-2.463,18.013L-9.031,9.278L-10.915,10.952L-10.915,18.013L-13.011,18.013L-13.011,0L-10.915,0L-10.915,8.933L-2.747,0L-0.271,0L-7.516,7.824L0,18.013Z" style="fill:rgb(182,84,21);fill-rule:nonzero;"/>
                </g>
            <g transform="matrix(1,0,0,1,175,200)">
                    <path d="M75.154,172.492C77.649,156.885 72.253,140.693 60.381,129.74C78.431,136.33 98.877,131.372 111.907,117.246C108.13,127.591 108.146,138.724 111.508,148.794C108.36,151.621 104.977,154.453 101.407,157.21C83.486,171.042 79.082,172.614 76.41,172.614C76.036,172.614 75.628,172.583 75.154,172.492ZM46.651,153.397C45.809,144.209 47.711,134.696 52.675,126.165C68.438,136.224 76.044,154.447 73.343,171.948C70.027,170.657 64.119,167.011 51.418,157.21C49.789,155.952 48.199,154.679 46.651,153.397ZM34.8,142.63C39.468,140.154 43.764,136.882 47.463,132.872C45.224,139.005 44.318,145.414 44.652,151.715C41.096,148.681 37.793,145.62 34.8,142.63ZM113.028,147.413C109.285,135.493 110.384,122.113 117.117,110.538C123.435,114.57 128.442,119.913 132.002,125.997C128.224,131.861 121.561,139.569 113.028,147.413ZM17.777,120.101C28.742,117.609 40.623,119.106 51.04,125.168C46.537,132.222 40.4,137.643 33.423,141.238C25.036,132.648 19.345,124.802 17.781,120.112L17.777,120.101ZM53.671,124.531C60.285,114.169 70.426,107.33 81.569,104.628C92.713,101.926 104.859,103.359 115.483,109.541C102.256,130.265 74.922,136.894 53.671,124.531ZM133.106,124.196C130.852,120.52 128.081,117.12 124.822,114.114C128.417,115.426 132.106,116.28 135.811,116.695C135.47,118.422 135.129,119.84 135.036,120.112C134.644,121.288 133.993,122.662 133.106,124.196ZM52.036,123.534C41.675,116.92 34.837,106.779 32.135,95.635C29.434,84.492 30.868,72.346 37.049,61.721C57.771,74.947 64.4,102.282 52.036,123.534ZM16.208,79.632C22.026,77.04 27.367,73.273 31.836,68.428C25.248,86.48 30.205,106.927 44.331,119.955C35.523,116.74 26.146,116.274 17.341,118.28C16.869,116.125 16.208,112.638 16.208,110.682L16.208,79.632ZM108.773,104.33C90.723,97.741 70.275,102.699 57.247,116.823C63.838,98.774 58.88,78.326 44.753,65.298C62.805,71.888 83.252,66.93 96.28,52.804C89.691,70.855 94.648,91.301 108.773,104.33ZM136.613,92.391L136.613,110.682C136.613,111.764 136.411,113.315 136.151,114.849C129.959,114.172 123.818,112.221 118.114,108.903C122.806,101.553 129.273,95.976 136.613,92.391ZM101.493,46.095C111.854,52.708 118.692,62.848 121.394,73.992C124.096,85.135 122.662,97.281 116.481,107.906C95.756,94.68 89.129,67.346 101.493,46.095ZM136.613,90.316C131.069,92.893 125.978,96.55 121.69,101.199C128.28,83.147 123.322,62.701 109.198,49.672C118.145,52.938 127.682,53.367 136.613,51.247L136.613,90.316ZM16.208,54.665C22.794,55.215 29.352,57.196 35.415,60.724C30.572,68.31 23.839,74.007 16.208,77.574L16.208,54.665ZM38.045,60.086C44.659,49.725 54.8,42.887 65.943,40.185C77.087,37.482 89.233,38.916 99.858,45.097C86.63,65.822 59.294,72.45 38.045,60.086ZM38.207,16.342C39.636,19.37 40.728,22.543 41.47,25.796C43.971,36.769 42.477,48.662 36.411,59.091C25.639,52.215 18.675,41.527 16.208,29.865L16.208,28.946C16.208,23.604 17.467,22.032 21.55,19.519C23.243,18.478 29.804,17.33 38.207,16.342ZM16.208,36.673C18.763,43.737 22.982,50.234 28.706,55.513C24.624,54.023 20.42,53.123 16.208,52.787L16.208,36.673ZM40.166,16.118C51.782,14.827 66.296,13.861 76.41,13.861C77.141,13.861 77.895,13.866 78.667,13.876C80.578,23.676 85.53,32.86 93.148,39.886C75.096,33.298 54.65,38.255 41.622,52.381C45.998,40.391 45.28,27.344 40.166,16.118ZM135.704,23.594C136.357,24.9 136.613,26.541 136.613,28.946L136.613,49.322C125.41,52.093 113.18,50.681 102.49,44.461C109.103,34.099 119.243,27.261 130.386,24.559C132.137,24.134 133.912,23.812 135.704,23.594ZM80.583,13.909C88.461,14.08 98.062,14.692 106.806,15.518C107.816,24.926 105.946,34.711 100.854,43.464C90.492,36.85 83.654,26.709 80.952,15.566C80.819,15.016 80.696,14.465 80.583,13.909ZM108.708,15.703C119.825,16.809 129.198,18.244 131.269,19.519C132.618,20.349 133.659,21.077 134.448,21.872C123.764,23.407 113.655,28.525 106.065,36.755C108.566,29.904 109.404,22.708 108.708,15.703Z" style="fill:rgb(0,167,211);fill-rule:nonzero;"/>
                </g>
            <g transform="matrix(1,0,0,1,292.832,303.292)">
                    <path d="M0,11.318C-3.122,11.318 -5.661,8.779 -5.661,5.658C-5.661,2.538 -3.122,0 0,0C3.122,0 5.661,2.538 5.661,5.658C5.661,8.779 3.122,11.318 0,11.318" style="fill:rgb(248,150,45);fill-rule:nonzero;"/>
                </g>
            <g transform="matrix(1,0,0,1,292.832,315.259)">
                    <path d="M0,-12.617C-3.48,-12.617 -6.311,-9.788 -6.311,-6.309C-6.311,-2.83 -3.48,0 0,0C3.48,0 6.311,-2.83 6.311,-6.309C6.311,-9.788 3.48,-12.617 0,-12.617M0,-11.317C2.771,-11.317 5.011,-9.078 5.011,-6.309C5.011,-3.547 2.771,-1.3 0,-1.3C-2.765,-1.3 -5.011,-3.547 -5.011,-6.309C-5.011,-9.078 -2.765,-11.317 0,-11.317" style="fill:white;fill-rule:nonzero;"/>
                </g>
            <g transform="matrix(1,0,0,1,227.418,320.648)">
                    <path d="M0,11.32C-3.122,11.32 -5.661,8.781 -5.661,5.66C-5.661,2.539 -3.122,0 0,0C3.122,0 5.661,2.539 5.661,5.66C5.661,8.781 3.122,11.32 0,11.32" style="fill:rgb(248,150,45);fill-rule:nonzero;"/>
                </g>
            <g transform="matrix(1,0,0,1,227.418,332.617)">
                    <path d="M0,-12.619C-3.48,-12.619 -6.311,-9.789 -6.311,-6.309C-6.311,-2.83 -3.48,0 0,0C3.48,0 6.311,-2.83 6.311,-6.309C6.311,-9.789 3.48,-12.619 0,-12.619M0,-11.319C2.771,-11.319 5.011,-9.078 5.011,-6.309C5.011,-3.547 2.771,-1.3 0,-1.3C-2.765,-1.3 -5.011,-3.547 -5.011,-6.309C-5.011,-9.078 -2.765,-11.319 0,-11.319" style="fill:white;fill-rule:nonzero;"/>
                </g>
            <g transform="matrix(1,0,0,1,276.099,238.535)">
                    <path d="M0,11.318C-3.122,11.318 -5.661,8.779 -5.661,5.657C-5.661,2.538 -3.122,0 0,0C3.122,0 5.661,2.538 5.661,5.657C5.661,8.779 3.122,11.318 0,11.318" style="fill:rgb(248,150,45);fill-rule:nonzero;"/>
                </g>
            <g transform="matrix(1,0,0,1,276.099,250.504)">
                    <path d="M0,-12.618C-3.479,-12.618 -6.311,-9.789 -6.311,-6.311C-6.311,-2.831 -3.479,0 0,0C3.479,0 6.311,-2.831 6.311,-6.311C6.311,-9.789 3.479,-12.618 0,-12.618M0,-11.318C2.77,-11.318 5.011,-9.079 5.011,-6.311C5.011,-3.548 2.77,-1.3 0,-1.3C-2.764,-1.3 -5.011,-3.548 -5.011,-6.311C-5.011,-9.079 -2.764,-11.318 0,-11.318" style="fill:white;fill-rule:nonzero;"/>
                </g>
            <g transform="matrix(1,0,0,1,211.572,254.956)">
                    <path d="M0,11.317C-3.121,11.317 -5.66,8.778 -5.66,5.657C-5.66,2.537 -3.121,0 0,0C3.122,0 5.661,2.537 5.661,5.657C5.661,8.778 3.122,11.317 0,11.317" style="fill:rgb(248,150,45);fill-rule:nonzero;"/>
                </g>
            <g transform="matrix(1,0,0,1,211.572,266.923)">
                    <path d="M0,-12.617C-3.479,-12.617 -6.31,-9.788 -6.31,-6.31C-6.31,-2.83 -3.479,0 0,0C3.48,0 6.311,-2.83 6.311,-6.31C6.311,-9.788 3.48,-12.617 0,-12.617M0,-11.317C2.771,-11.317 5.011,-9.077 5.011,-6.31C5.011,-3.546 2.771,-1.3 0,-1.3C-2.763,-1.3 -5.01,-3.546 -5.01,-6.31C-5.01,-9.077 -2.763,-11.317 0,-11.317" style="fill:white;fill-rule:nonzero;"/>
                </g>
            </g>
        </g>
    </g>
</svg>
