<svg clip-rule="evenodd" fill-rule="evenodd" stroke-linejoin="round" stroke-miterlimit="2" version="1.1" viewBox="0 0 571 187" xml:space="preserve" xmlns="http://www.w3.org/2000/svg" xmlns:serif="http://www.serif.com/">
    <g transform="matrix(.99873 0 0 .93205 -175.03 -186.46)">
        <rect x="175.25" y="200.05" width="571.69" height="199.6" fill="none"/>
        <g transform="matrix(1.0013 0 0 1.0729 .03028 -14.529)">
            <g transform="matrix(.993 -.11811 -.11811 -.993 355.78 334.82)">
                <path d="m-7.106-0.387c-0.343-2.878-0.174-2.898-14.057-1.247l14.057 118.18c0.745 6.264 3.454 5.942 14.459 4.633l-14.459-121.56z" fill="#f8962d" fill-rule="nonzero"/>
            </g>
            <g transform="translate(387.82 263.07)">
                <path d="m0 67.006c7.332 0 12.617-7.502 12.617-34.1 0-27.11-3.921-32.736-11.935-32.736-7.502 0-12.787 6.819-12.787 33.418 0 28.133 4.262 33.418 12.105 33.418m1.023-78.771c17.903 0 26.599 9.888 26.599 44.5 0 31.713-9.719 46.036-27.622 46.036-17.902 0-27.109-7.161-27.109-45.524 0-31.202 10.4-45.012 28.132-45.012" fill="#f8962d" fill-rule="nonzero"/>
            </g>
            <g transform="translate(427.37 333.32)">
                <path d="m0-76.555c7.502-3.581 16.368-5.627 25.746-5.627 6.99 0 11.765 1.876 15.004 5.286 5.797-3.41 13.47-5.286 19.438-5.286 19.778 0 20.971 7.843 20.971 31.373v53.537c0 2.899 0.512 2.899-13.81 2.899v-57.119c0-13.98-0.512-18.414-8.867-18.414-3.581 0-7.161 1.023-10.912 3.922v69.906c-0.171 0.34-0.171 0.852-0.681 1.023 0 0.17-0.171 0.17-0.342 0.17-0.853 0.341-2.387 0.512-5.285 0.512h-7.502v-57.119c0-13.128 0-18.584-8.355-18.584-3.751 0-7.673 0.853-11.594 3.239v69.565c0 2.899 0.341 2.899-13.811 2.899v-82.182z" fill="#f8962d" fill-rule="nonzero"/>
            </g>
            <g transform="translate(555.59 294.1)">
                <path d="m0 4.603c-2.217-1.194-5.627-1.535-8.014-1.535-6.82 0-12.617 2.388-12.617 17.391 0 14.664 4.263 15.346 10.912 15.346 3.41 0 7.672-1.023 9.207-2.728 0 0 0.512-16.198 0.512-28.474m-34.953-39.045c0-1.875 0.341-3.58 1.534-4.433 2.558-1.876 13.982-4.092 29.838-4.092 11.083 0 17.561 5.456 17.561 20.801v9.889c0 29.838-1.022 54.049-1.022 54.049-4.604 2.898-12.617 5.627-23.7 5.627-12.446 0.171-24.382-0.853-24.382-26.769 0-23.7 11.253-27.962 22.165-27.962 4.263 0 9.549 0.511 12.959 2.216v-14.322c0-8.014-3.752-10.06-9.037-10.06-7.673 0-18.755 1.535-24.041 3.922-1.705-2.899-1.875-7.673-1.875-8.866" fill="#f8962d" fill-rule="nonzero"/>
            </g>
            <g transform="translate(583.55 333.32)">
                <path d="m0-76.555c6.649-3.069 18.926-5.627 28.133-5.627 20.631 0 22.846 7.843 22.846 31.373v53.537c0 2.899 0.171 2.899-14.322 2.899v-57.119c0-13.469-1.022-18.584-10.059-18.584-3.751 0-9.036 0.853-12.787 3.239v69.565c0 2.899 0.34 2.899-13.811 2.899v-82.182z" fill="#f8962d" fill-rule="nonzero"/>
            </g>
            <g transform="translate(336.46 362.81)">
                <path d="m0 0.247h1.885c1.856 0 3.199-0.301 4.029-0.9 0.829-0.6 1.245-1.561 1.245-2.883 0-1.191-0.391-2.077-1.171-2.66s-1.996-0.874-3.647-0.874h-2.341v7.317zm9.327-3.883c0 1.825-0.622 3.228-1.867 4.209-1.245 0.983-3.024 1.473-5.341 1.473h-2.119v7.084h-2.094v-18.013h4.669c4.501 0 6.752 1.749 6.752 5.247" fill="#b65415" fill-rule="nonzero"/>
            </g>
            <g transform="translate(366.78 358.71)">
                <path d="m0 8.437c0 1.586-0.576 2.82-1.725 3.71-1.15 0.887-2.711 1.33-4.681 1.33-2.136 0-3.779-0.275-4.929-0.826v-2.02c0.74 0.312 1.544 0.559 2.415 0.74 0.871 0.18 1.733 0.27 2.587 0.27 1.396 0 2.447-0.265 3.155-0.794 0.706-0.53 1.059-1.266 1.059-2.212 0-0.624-0.126-1.135-0.376-1.535-0.251-0.397-0.67-0.766-1.257-1.101-0.587-0.338-1.48-0.719-2.679-1.146-1.676-0.601-2.873-1.311-3.591-2.132-0.719-0.82-1.079-1.892-1.079-3.216 0-1.387 0.522-2.492 1.565-3.313 1.043-0.82 2.423-1.232 4.14-1.232 1.791 0 3.437 0.328 4.94 0.985l-0.653 1.824c-1.487-0.625-2.932-0.936-4.336-0.936-1.109 0-1.976 0.238-2.6 0.714-0.624 0.477-0.936 1.139-0.936 1.984 0 0.624 0.115 1.135 0.344 1.534 0.231 0.398 0.618 0.763 1.165 1.095 0.546 0.335 1.382 0.701 2.507 1.104 1.889 0.674 3.189 1.397 3.899 2.167 0.711 0.773 1.066 1.775 1.066 3.006" fill="#b65415" fill-rule="nonzero"/>
            </g>
            <g transform="translate(382.12 362.94)">
                <path d="m0-1e-3 4.805-9.006h2.267l-6.012 11.027v6.986h-2.12v-6.887l-6-11.126h2.292l4.768 9.006z" fill="#b65415" fill-rule="nonzero"/>
            </g>
            <g transform="translate(406.44 370.32)">
                <path d="m0-14.773c-1.979 0-3.542 0.658-4.688 1.978-1.145 1.317-1.719 3.123-1.719 5.414 0 2.357 0.553 4.178 1.657 5.463 1.105 1.286 2.68 1.929 4.726 1.929 1.256 0 2.689-0.226 4.299-0.678v1.836c-1.248 0.467-2.789 0.703-4.62 0.703-2.653 0-4.7-0.806-6.142-2.416-1.441-1.608-2.161-3.896-2.161-6.863 0-1.855 0.346-3.481 1.041-4.878 0.693-1.396 1.695-2.472 3.005-3.227 1.31-0.756 2.852-1.133 4.627-1.133 1.889 0 3.539 0.345 4.952 1.034l-0.887 1.799c-1.363-0.641-2.727-0.961-4.09-0.961" fill="#b65415" fill-rule="nonzero"/>
            </g>
            <g transform="translate(435.39 353.93)">
                <path d="m0 18.013h-2.094v-8.478h-9.486v8.478h-2.095v-18.013h2.095v7.663h9.486v-7.663h2.094v18.013z" fill="#b65415" fill-rule="nonzero"/>
            </g>
            <g transform="translate(448.67 362.93)">
                <path d="m0-0.014c0 2.44 0.521 4.291 1.56 5.551 1.037 1.261 2.546 1.891 4.527 1.891 1.996 0 3.503-0.628 4.52-1.884 1.02-1.256 1.529-3.109 1.529-5.558 0-2.422-0.508-4.261-1.522-5.512-1.013-1.253-2.515-1.879-4.504-1.879-1.994 0-3.513 0.63-4.55 1.892-1.039 1.261-1.56 3.094-1.56 5.499m14.354 0c0 2.884-0.729 5.15-2.187 6.801s-3.484 2.477-6.08 2.477c-2.653 0-4.699-0.811-6.142-2.433-1.441-1.621-2.162-3.911-2.162-6.869 0-2.933 0.723-5.205 2.168-6.819 1.445-1.613 3.499-2.421 6.159-2.421 2.588 0 4.609 0.823 6.064 2.463 1.453 1.645 2.18 3.911 2.18 6.801" fill="#b65415" fill-rule="nonzero"/>
            </g>
            <g transform="translate(474.11 353.93)">
                <path d="m0 18.013v-18.013h2.095v16.115h7.946v1.898h-10.041z" fill="#b65415" fill-rule="nonzero"/>
            </g>
            <g transform="translate(495.55 362.93)">
                <path d="m0-0.014c0 2.44 0.519 4.291 1.558 5.551 1.04 1.261 2.547 1.891 4.527 1.891 1.996 0 3.504-0.628 4.521-1.884 1.019-1.256 1.529-3.109 1.529-5.558 0-2.422-0.509-4.261-1.522-5.512-1.013-1.253-2.515-1.879-4.503-1.879-1.995 0-3.512 0.63-4.552 1.892-1.039 1.261-1.558 3.094-1.558 5.499m14.353 0c0 2.884-0.73 5.15-2.187 6.801-1.459 1.651-3.484 2.477-6.081 2.477-2.652 0-4.7-0.811-6.142-2.433-1.44-1.621-2.162-3.911-2.162-6.869 0-2.933 0.723-5.205 2.17-6.819 1.444-1.613 3.498-2.421 6.159-2.421 2.586 0 4.609 0.823 6.063 2.463 1.453 1.645 2.18 3.911 2.18 6.801" fill="#b65415" fill-rule="nonzero"/>
            </g>
            <g transform="translate(528.9 363.36)">
                <path d="m0-0.851h6.123v8.76c-0.953 0.303-1.92 0.533-2.908 0.688-0.986 0.157-2.126 0.236-3.424 0.236-2.727 0-4.85-0.812-6.369-2.434-1.521-1.621-2.28-3.895-2.28-6.819 0-1.872 0.376-3.513 1.128-4.921 0.751-1.409 1.833-2.485 3.247-3.229 1.412-0.744 3.066-1.114 4.963-1.114 1.923 0 3.712 0.353 5.372 1.059l-0.813 1.847c-1.627-0.69-3.19-1.034-4.693-1.034-2.194 0-3.907 0.654-5.139 1.959-1.23 1.306-1.846 3.116-1.846 5.433 0 2.431 0.592 4.276 1.78 5.532 1.185 1.257 2.929 1.885 5.228 1.885 1.25 0 2.469-0.144 3.659-0.432v-5.543h-4.028v-1.873z" fill="#b65415" fill-rule="nonzero"/>
            </g>
            <g transform="translate(-8.5039 122.09)">
                <rect x="554.92" y="231.84" width="2.094" height="18.013" fill="#b65415"/>
            </g>
            <g transform="translate(570.56 353.93)">
                <path d="m0 18.013h-10.04v-18.013h10.04v1.861h-7.947v5.802h7.466v1.847h-7.466v6.629h7.947v1.874z" fill="#b65415" fill-rule="nonzero"/>
            </g>
            <g transform="translate(583.71 362.81)">
                <path d="m0 0.247h1.886c1.857 0 3.2-0.301 4.029-0.9 0.829-0.6 1.243-1.561 1.243-2.883 0-1.191-0.389-2.077-1.169-2.66-0.782-0.583-1.996-0.874-3.648-0.874h-2.341v7.317zm9.327-3.883c0 1.825-0.622 3.228-1.866 4.209-1.245 0.983-3.024 1.473-5.339 1.473h-2.122v7.084h-2.093v-18.013h4.67c4.5 0 6.75 1.749 6.75 5.247" fill="#b65415" fill-rule="nonzero"/>
            </g>
            <g transform="translate(605.96 363.22)">
                <path d="m0-0.567h2.87c1.48 0 2.565-0.293 3.253-0.882 0.691-0.587 1.033-1.468 1.033-2.64 0-1.192-0.348-2.05-1.052-2.576-0.702-0.526-1.829-0.789-3.381-0.789h-2.723v6.887zm0 1.8v7.49h-2.094v-18.013h4.94c2.21 0 3.841 0.423 4.898 1.27 1.054 0.847 1.582 2.119 1.582 3.819 0 2.381-1.206 3.991-3.622 4.83l4.892 8.094h-2.476l-4.362-7.49h-3.758z" fill="#b65415" fill-rule="nonzero"/>
            </g>
            <g transform="translate(634.96 361.47)">
                <path d="m0 2.86-2.093-5.582c-0.271-0.706-0.551-1.572-0.839-2.599-0.18 0.787-0.438 1.655-0.775 2.599l-2.12 5.582h5.827zm2.896 7.613-2.243-5.728h-7.218l-2.219 5.728h-2.118l7.121-18.086h1.761l7.083 18.086h-2.167z" fill="#b65415" fill-rule="nonzero"/>
            </g>
            <g transform="translate(662.57 353.93)">
                <path d="m0 18.013h-2.464l-6.567-8.735-1.884 1.674v7.061h-2.095v-18.013h2.095v8.933l8.168-8.933h2.476l-7.244 7.824 7.515 10.189z" fill="#b65415" fill-rule="nonzero"/>
            </g>
            <g transform="translate(677.66 353.93)">
                <path d="m0 18.013h-2.096v-16.152h-5.703v-1.861h13.502v1.861h-5.703v16.152z" fill="#b65415" fill-rule="nonzero"/>
            </g>
            <g transform="translate(-8.5039 122.09)">
                <rect x="701.64" y="231.84" width="2.093" height="18.013" fill="#b65415"/>
            </g>
            <g transform="translate(704.61 353.93)">
                <path d="m0 22.755c-0.773 0-1.379-0.11-1.823-0.333v-1.785c0.585 0.163 1.191 0.245 1.823 0.245 0.813 0 1.432-0.245 1.854-0.737 0.423-0.494 0.634-1.203 0.634-2.132v-18.013h2.096v17.839c0 1.561-0.396 2.77-1.184 3.629-0.788 0.858-1.921 1.287-3.4 1.287" fill="#b65415" fill-rule="nonzero"/>
            </g>
            <g transform="translate(734.05 353.93)">
                <path d="m0 18.013h-2.463l-6.568-8.735-1.884 1.674v7.061h-2.096v-18.013h2.096v8.933l8.168-8.933h2.476l-7.245 7.824 7.516 10.189z" fill="#b65415" fill-rule="nonzero"/>
            </g>
            <g transform="translate(306.27 366.96)">
                <path d="m0-147.44c-4.088-2.517-36.626-5.658-54.859-5.658-18.232 0-50.766 3.141-54.86 5.658-4.083 2.513-5.342 4.085-5.342 9.427v81.736c0 2.824 1.379 8.838 1.573 9.43 2.517 7.547 15.717 23.263 33.637 37.098 17.924 13.832 22.321 15.404 24.992 15.404 2.672 0 7.076-1.572 24.997-15.404 17.915-13.835 31.117-29.551 33.629-37.098 0.204-0.592 1.577-6.606 1.577-9.43v-81.736c0-5.342-1.26-6.914-5.344-9.427" fill="#00a7d3" fill-rule="nonzero"/>
            </g>
            <g transform="translate(293.42 767.14)">
                <clipPath id="a">
                    <path d="m-96.869-547.62c-4.082 2.513-5.341 4.085-5.341 9.427v81.736c0 2.824 1.379 8.838 1.572 9.43 2.517 7.547 15.718 23.262 33.638 37.098 17.924 13.832 22.32 15.405 24.992 15.405s7.076-1.573 24.996-15.405c17.916-13.836 31.118-29.551 33.63-37.098 0.204-0.592 1.576-6.606 1.576-9.43v-81.736c0-5.342-1.259-6.914-5.344-9.427-4.088-2.516-36.626-5.658-54.858-5.658s-50.766 3.142-54.861 5.658z" clip-rule="nonzero"/>
                </clipPath>
                <g clip-path="url(#a)">
                    <path d="m-154.16-496c-18.052-6.589-14.127-13.028 0 0m48.818-80.069c-18.053-6.588-14.126-13.029 0 0m-41.113 83.648c-20.721-13.228 12.365-21.252 0 0m48.819-80.071c-20.724-13.227 12.362-21.25 0 0m-40.897 140.94c-18.052-6.591-25.523-37.401-12.495-51.528-6.59 18.053-1.63 38.499 12.495 51.528m48.818-80.07c-18.052-6.589-38.5-1.631-51.528 12.494 6.59-18.051 26.004-49.895 39.032-64.021-6.589 18.051-1.631 38.499 12.496 51.527m48.817-80.069c-18.052-6.59-38.5-1.633-51.528 12.493 6.59-18.051 37.403-25.521 51.528-12.493m7.705 3.577c-20.723-13.228 12.363-21.251 0 0m-97.634 160.14c-20.724-13.228-27.351-40.563-14.99-61.812 20.725 13.226 27.351 40.563 14.99 61.812m-13.994-63.446c13.229-20.724 40.563-27.353 61.815-14.989-13.228 20.722-40.564 27.351-61.815 14.989m62.811-16.622c-20.724-13.228-27.352-40.563-14.989-61.815 10.554 6.737 17.452 17.133 20.048 28.521 2.501 10.972 1.007 22.866-5.059 33.294m-13.992-63.448c13.227-20.723 40.562-27.351 61.813-14.988-13.229 20.724-40.563 27.351-61.813 14.988m64.443-15.626c13.228-20.723 21.25 12.363 0 0m80.068 48.817c13.23-20.723 21.252 12.364 0 0m-122.6 91.121c-18.052-6.589-38.498-1.631-51.528 12.495 6.591-18.051 1.632-38.498-12.492-51.527 18.051 6.59 38.497 1.632 51.525-12.495-6.588 18.052-1.631 38.499 12.495 51.527m48.817-80.069c-18.052-6.588-38.498-1.631-51.526 12.495 6.589-18.052 1.63-38.498-12.495-51.527 18.051 6.59 38.5 1.632 51.527-12.494-6.589 18.052-1.632 38.498 12.494 51.526m7.706 3.578c-20.724-13.228-27.352-40.562-14.988-61.813 20.723 13.228 27.35 40.563 14.988 61.813m5.211-6.709c6.59-18.052 1.633-38.498-12.493-51.527 18.051 6.591 49.893 26.005 64.019 39.031-18.05-6.588-38.498-1.63-51.526 12.496m80.07 48.818c6.589-18.052 1.632-38.499-12.495-51.529 18.051 6.592 25.523 37.402 12.495 51.529m-196.91 54.582c13.226-20.721 40.563-27.352 61.812-14.987-13.228 20.723-40.562 27.352-61.812 14.987m62.808-16.621c-20.723-13.228-27.35-40.563-14.987-61.813 20.722 13.226 27.351 40.561 14.987 61.813m-13.991-63.448c13.228-20.722 40.563-27.351 61.813-14.989-13.228 20.725-40.564 27.353-61.813 14.989m64.445-15.625c13.226-20.723 40.56-27.352 61.811-14.989-13.23 20.723-40.562 27.352-61.811 14.989m63.445-13.993c20.724 13.228 27.351 40.563 14.988 61.813-20.723-13.227-27.351-40.562-14.988-61.813m7.283 58.236c-18.051-6.589-38.499-1.632-51.528 12.495 6.59-18.052 1.632-38.498-12.492-51.527 18.05 6.589 38.497 1.631 51.526-12.494-6.589 18.051-1.632 38.498 12.494 51.526m9.34 4.574c13.226-20.723 21.249 12.363 0 0m-115.89 96.333c-13.228 20.722-21.251-12.362 0 0m-6.711-5.212c-18.051-6.587-49.893-26.002-64.02-39.032 18.054 6.59 38.498 1.631 51.527-12.495-6.59 18.054-1.632 38.5 12.493 51.527m41.537-138.3c20.722 13.227 27.35 40.561 14.988 61.811-20.725-13.226-27.352-40.56-14.988-61.811m7.28 58.235c-18.05-6.589-38.498-1.631-51.526 12.493 6.591-18.049 1.633-38.497-12.494-51.525 18.052 6.59 38.499 1.632 51.527-12.494-6.589 18.051-1.632 38.497 12.493 51.526m9.341 4.573c13.228-20.722 40.563-27.351 61.813-14.988-13.228 20.725-40.563 27.353-61.813 14.988m63.449-13.992c20.721 13.228-12.365 21.251 0 0m-113.9 93.066c-20.723-13.226-27.351-40.563-14.988-61.812 20.724 13.226 27.349 40.563 14.988 61.812m-13.992-63.446c13.228-20.724 40.563-27.353 61.812-14.99-13.227 20.724-40.561 27.353-61.812 14.99m83.646 41.111c6.588-18.051 1.633-38.498-12.495-51.528 18.054 6.591 38.499 1.632 51.529-12.492-6.591 18.05-26.007 49.894-39.034 64.02m-9.783 16.049c-6.591 18.051-37.403 25.522-51.53 12.493 18.054 6.59 38.5 1.632 51.53-12.493m3.575-7.705c-13.227 20.722-40.562 27.35-61.813 14.987 13.228-20.722 40.563-27.352 61.813-14.987m-13.992-63.448c20.724 13.227 27.352 40.563 14.989 61.813-20.723-13.228-27.35-40.563-14.989-61.813m7.284 58.236c-18.052-6.589-38.499-1.632-51.526 12.494 6.587-18.053 1.629-38.498-12.494-51.528 18.05 6.59 38.496 1.632 51.526-12.494-6.59 18.052-1.632 38.499 12.494 51.528m9.339 4.575c13.227-20.726 21.25 12.361 0 0m46.709-159.73c6.59-18.051-137.26-65.427-128.03-75.441-6.588 18.052-105.51 92.12-111.6 80.41l6.543 135.34c6.532 13.363 104.84 72.643 117.87 58.515-4.196 11.499 120.88-35.759 120.88-35.759-11.784 0.943 7.36-177.19-5.668-163.06z" fill="#fff" fill-rule="nonzero"/>
                </g>
            </g>
            <g transform="translate(292.83 303.29)">
                <path d="m0 11.318c-3.122 0-5.661-2.539-5.661-5.66 0-3.12 2.539-5.658 5.661-5.658s5.661 2.538 5.661 5.658c0 3.121-2.539 5.66-5.661 5.66" fill="#f8962d" fill-rule="nonzero"/>
            </g>
            <g transform="translate(292.83 315.26)">
                <path d="m0-12.617c-3.48 0-6.311 2.829-6.311 6.308s2.831 6.309 6.311 6.309 6.311-2.83 6.311-6.309-2.831-6.308-6.311-6.308m0 1.3c2.771 0 5.011 2.239 5.011 5.008 0 2.762-2.24 5.009-5.011 5.009-2.765 0-5.011-2.247-5.011-5.009 0-2.769 2.246-5.008 5.011-5.008" fill="#fff" fill-rule="nonzero"/>
            </g>
            <g transform="translate(227.42 320.65)">
                <path d="m0 11.32c-3.122 0-5.661-2.539-5.661-5.66s2.539-5.66 5.661-5.66 5.661 2.539 5.661 5.66-2.539 5.66-5.661 5.66" fill="#f8962d" fill-rule="nonzero"/>
            </g>
            <g transform="translate(227.42 332.62)">
                <path d="m0-12.619c-3.48 0-6.311 2.83-6.311 6.31 0 3.479 2.831 6.309 6.311 6.309s6.311-2.83 6.311-6.309c0-3.48-2.831-6.31-6.311-6.31m0 1.3c2.771 0 5.011 2.241 5.011 5.01 0 2.762-2.24 5.009-5.011 5.009-2.765 0-5.011-2.247-5.011-5.009 0-2.769 2.246-5.01 5.011-5.01" fill="#fff" fill-rule="nonzero"/>
            </g>
            <g transform="translate(276.1 238.54)">
                <path d="m0 11.318c-3.122 0-5.661-2.539-5.661-5.661 0-3.119 2.539-5.657 5.661-5.657s5.661 2.538 5.661 5.657c0 3.122-2.539 5.661-5.661 5.661" fill="#f8962d" fill-rule="nonzero"/>
            </g>
            <g transform="translate(276.1 250.5)">
                <path d="m0-12.618c-3.479 0-6.311 2.829-6.311 6.307 0 3.48 2.832 6.311 6.311 6.311s6.311-2.831 6.311-6.311c0-3.478-2.832-6.307-6.311-6.307m0 1.3c2.77 0 5.011 2.239 5.011 5.007 0 2.763-2.241 5.011-5.011 5.011-2.764 0-5.011-2.248-5.011-5.011 0-2.768 2.247-5.007 5.011-5.007" fill="#fff" fill-rule="nonzero"/>
            </g>
            <g transform="translate(211.57 254.96)">
                <path d="m0 11.317c-3.121 0-5.66-2.539-5.66-5.66 0-3.12 2.539-5.657 5.66-5.657 3.122 0 5.661 2.537 5.661 5.657 0 3.121-2.539 5.66-5.661 5.66" fill="#f8962d" fill-rule="nonzero"/>
            </g>
            <g transform="translate(211.57 266.92)">
                <path d="m0-12.617c-3.479 0-6.31 2.829-6.31 6.307 0 3.48 2.831 6.31 6.31 6.31 3.48 0 6.311-2.83 6.311-6.31 0-3.478-2.831-6.307-6.311-6.307m0 1.3c2.771 0 5.011 2.24 5.011 5.007 0 2.764-2.24 5.01-5.011 5.01-2.763 0-5.01-2.246-5.01-5.01 0-2.767 2.247-5.007 5.01-5.007" fill="#fff" fill-rule="nonzero"/>
            </g>
        </g>
    </g>
</svg>
